<svg xmlns="http://www.w3.org/2000/svg" viewBox="0 0 64 64" width="64" height="64">
  <!-- Corpo largo — armor pesada -->
  <rect x="12" y="26" width="40" height="28" rx="5" fill="#2A5FC4" stroke="#1A1A2E" stroke-width="2"/>
  <!-- Placa central de armadura -->
  <rect x="20" y="29" width="24" height="18" rx="3" fill="#3A72E0" stroke="#1A1A2E" stroke-width="1.5"/>
  <!-- Detalhe: icone escudo -->
  <path d="M32 32 L26 35 L26 41 Q32 45 38 41 L38 35 Z" fill="#1A3A8C" stroke="#5A8AFF" stroke-width="1"/>
  <!-- Ombros largos -->
  <rect x="6" y="24" width="12" height="12" rx="4" fill="#2A5FC4" stroke="#1A1A2E" stroke-width="2"/>
  <rect x="46" y="24" width="12" height="12" rx="4" fill="#2A5FC4" stroke="#1A1A2E" stroke-width="2"/>
  <!-- Pescoço curto e grosso -->
  <rect x="27" y="21" width="10" height="6" rx="2" fill="#F5CBA7" stroke="#1A1A2E" stroke-width="1.5"/>
  <!-- Cabeca quadrada/robusta -->
  <rect x="20" y="8" rx="5" width="24" height="15" fill="#3A3A5C" stroke="#1A1A2E" stroke-width="2"/>
  <!-- Visor/capacete -->
  <rect x="22" y="10" width="20" height="8" rx="3" fill="#4A9AFF" stroke="#1A1A2E" stroke-width="1"/>
  <!-- Olhos brilhantes no visor -->
  <ellipse cx="27" cy="14" rx="3" ry="2.5" fill="#8FD4FF" stroke="#1A1A2E" stroke-width="0.5"/>
  <ellipse cx="37" cy="14" rx="3" ry="2.5" fill="#8FD4FF" stroke="#1A1A2E" stroke-width="0.5"/>
  <ellipse cx="27" cy="14" rx="1.5" ry="1.5" fill="white"/>
  <ellipse cx="37" cy="14" rx="1.5" ry="1.5" fill="white"/>
  <!-- Bracaos -->
  <rect x="5" y="34" width="7" height="16" rx="3" fill="#2A5FC4" stroke="#1A1A2E" stroke-width="2"/>
  <rect x="52" y="34" width="7" height="16" rx="3" fill="#2A5FC4" stroke="#1A1A2E" stroke-width="2"/>
  <!-- Luvas -->
  <rect x="4" y="49" width="9" height="6" rx="3" fill="#1A3A8C" stroke="#1A1A2E" stroke-width="1.5"/>
  <rect x="51" y="49" width="9" height="6" rx="3" fill="#1A3A8C" stroke="#1A1A2E" stroke-width="1.5"/>
  <!-- Pernas largas -->
  <rect x="17" y="53" width="12" height="9" rx="3" fill="#1A3A8C" stroke="#1A1A2E" stroke-width="2"/>
  <rect x="35" y="53" width="12" height="9" rx="3" fill="#1A3A8C" stroke="#1A1A2E" stroke-width="2"/>
  <!-- Botas -->
  <rect x="15" y="59" width="15" height="4" rx="2" fill="#0A1A4C" stroke="#1A1A2E" stroke-width="1"/>
  <rect x="34" y="59" width="15" height="4" rx="2" fill="#0A1A4C" stroke="#1A1A2E" stroke-width="1"/>
</svg>
